<svg width="184" height="45" viewBox="0 0 184 45" fill="none" xmlns="http://www.w3.org/2000/svg">
<path d="M2.76391 44C2.76391 39.5937 2.09954 35.1003 1.61151 30.73C0.76742 23.1714 0.696751 15.9037 2.04031 8.39175C2.23438 7.30668 2.47158 2.26731 3.54111 1.45094C4.12507 1.00521 5.90624 1.09447 6.52931 1.05204C11.0195 0.746271 15.8626 1.76539 19.3799 4.7086C28.2866 12.1614 14.0888 24.4701 8.86092 29.2408C8.01122 30.0162 5.50047 31.3013 6.54271 31.7937C7.38338 32.191 9.25373 32.0141 10.0267 32.0331C12.8171 32.1014 15.6039 32.1658 18.3883 32.3788C22.033 32.6576 33.8599 33.0618 28.0631 39.2132C24.9866 42.478 21.6738 42.1366 18.0265 40.0775C17.9576 40.0386 16.2134 39.2322 16.4855 38.9207C17.6496 37.5879 20.9338 36.9486 22.4753 36.4475C27.7119 34.7453 34.9654 31.3317 37.4431 38.2559C37.492 38.3925 38.0971 40.8486 38.2337 39.9445C38.6206 37.3851 38.8542 34.8244 39.5871 32.3256C39.9335 31.1446 40.74 27.4841 42.7093 28.2302C44.6996 28.9843 45.7057 31.5616 46.4882 33.3361C47.0702 34.6563 47.553 33.8411 48.1899 32.884C49.4913 30.9287 50.6378 28.81 52.411 27.2197C57.3058 22.8297 59.4462 34.5224 60.116 36.9528C62.0991 44.1496 70.6988 40.8224 74.9096 37.3251C76.4583 36.0388 78.4728 34.0098 77.4556 31.8469C76.4596 29.7291 73.951 30.3807 72.578 31.807C71.3189 33.1149 70.4841 35.9638 72.444 37.0858C74.8924 38.4874 77.0911 37.2568 78.8626 35.5168C80.273 34.1314 81.9106 32.397 82.1188 30.3311C82.2156 29.3709 81.9419 30.3831 81.9044 30.7433C81.7638 32.0922 81.8803 34.2748 83.1908 35.1179C85.5019 36.6047 88.3433 31.0622 89.06 29.9455C90.1185 28.2962 90.9536 26.8619 91.8606 25.1587C92.1846 24.5503 92.0516 23.149 92.7316 23.2839C92.8565 23.3087 92.9526 29.9072 92.9728 30.2779C92.9834 30.4726 93.0986 35.5168 93.348 35.5168C93.8094 35.5168 95.0618 30.1424 95.1436 29.879C95.3092 29.3463 97.1955 22.4211 98.4668 23.2706C99.8748 24.2115 100.658 27.4108 101.147 28.7887C102.056 31.3536 102.582 34.1832 103.894 36.5938C107.006 42.3111 115.57 30.3697 117.093 28.31C119.334 25.2784 120.916 22.3992 122.265 18.9226C122.899 17.288 123.699 12.1052 123.672 13.8566C123.563 21.1379 123.772 28.3591 124.704 35.5965C124.807 36.3939 125.065 40.0994 125.937 41.088C126.509 41.7367 125.402 39.4243 124.918 38.708C122.574 35.2316 119.164 32.0331 114.694 32.0331C110.056 32.0331 111.008 36.0525 114.145 37.9367C119.812 41.3407 128.422 38.6286 133.856 36.1683C136.073 35.1649 146.207 29.3117 140.06 26.2624C138.069 25.2743 133.455 26.1356 134.084 29.2408C134.974 33.6319 142.962 31.9227 145.42 30.6635C147.894 29.3969 149.131 27.401 150.593 25.2252C150.865 24.8208 150.766 26.1887 150.754 26.6745C150.693 29.1808 150.746 31.7099 151.182 34.1871C151.407 35.4642 152.67 41.7131 155.216 39.0537C158.552 35.5691 158.25 28.7598 158.713 24.3476C158.835 23.1837 158.521 21.7427 159.33 20.8905C160.558 19.5953 162.245 23.0171 163.403 24.3742C168.02 29.7812 173.286 37.9032 180.77 39.5589C187.273 40.9978 177.545 34.2881 176.937 33.9744C159.664 25.0606 138.233 24.6147 119.29 25.0391C82.012 25.8743 44.9341 33.9245 7.58792 30.8364" stroke="black" stroke-linecap="round"/>
</svg>
